<?xml version="1.0" encoding="UTF-8" standalone="no"?><svg xmlns="http://www.w3.org/2000/svg" xmlns:xlink="http://www.w3.org/1999/xlink" contentScriptType="application/ecmascript" contentStyleType="text/css" height="1416px" preserveAspectRatio="none" style="width:3131px;height:1416px;" version="1.1" viewBox="0 0 3131 1416" width="3131px" zoomAndPan="magnify"><defs><filter height="300%" id="fgxeg7r" width="300%" x="-1" y="-1"><feGaussianBlur result="blurOut" stdDeviation="2.0"/><feColorMatrix in="blurOut" result="blurOut2" type="matrix" values="0 0 0 0 0 0 0 0 0 0 0 0 0 0 0 0 0 0 .4 0"/><feOffset dx="4.0" dy="4.0" in="blurOut2" result="blurOut3"/><feBlend in="SourceGraphic" in2="blurOut3" mode="normal"/></filter></defs><g><rect fill="#ADD8E6" height="1411.0195" style="stroke: #A80036; stroke-width: 1.0;" width="567.5" x="4" y="4"/><text fill="#000000" font-family="sans-serif" font-size="13" font-weight="bold" lengthAdjust="spacingAndGlyphs" textLength="88" x="243.75" y="16.5684">Main Process</text><rect fill="#90EE90" height="1411.0195" style="stroke: #A80036; stroke-width: 1.0;" width="1264.5" x="573.5" y="4"/><text fill="#000000" font-family="sans-serif" font-size="13" font-weight="bold" lengthAdjust="spacingAndGlyphs" textLength="98" x="1156.75" y="16.5684">Server Process</text><rect fill="#FFB6C1" height="1411.0195" style="stroke: #A80036; stroke-width: 1.0;" width="1049" x="1840" y="4"/><text fill="#000000" font-family="sans-serif" font-size="13" font-weight="bold" lengthAdjust="spacingAndGlyphs" textLength="94" x="2317.5" y="16.5684">Client Process</text><line style="stroke: #A80036; stroke-width: 1.0; stroke-dasharray: 5.0,5.0;" x1="69" x2="69" y1="58.7988" y2="1376.5313"/><line style="stroke: #A80036; stroke-width: 1.0; stroke-dasharray: 5.0,5.0;" x1="195" x2="195" y1="58.7988" y2="1376.5313"/><line style="stroke: #A80036; stroke-width: 1.0; stroke-dasharray: 5.0,5.0;" x1="349.5" x2="349.5" y1="58.7988" y2="1376.5313"/><line style="stroke: #A80036; stroke-width: 1.0; stroke-dasharray: 5.0,5.0;" x1="499.5" x2="499.5" y1="58.7988" y2="1376.5313"/><line style="stroke: #A80036; stroke-width: 1.0; stroke-dasharray: 5.0,5.0;" x1="672.5" x2="672.5" y1="58.7988" y2="1376.5313"/><line style="stroke: #A80036; stroke-width: 1.0; stroke-dasharray: 5.0,5.0;" x1="870.5" x2="870.5" y1="58.7988" y2="1376.5313"/><line style="stroke: #A80036; stroke-width: 1.0; stroke-dasharray: 5.0,5.0;" x1="1156" x2="1156" y1="58.7988" y2="1376.5313"/><line style="stroke: #A80036; stroke-width: 1.0; stroke-dasharray: 5.0,5.0;" x1="1361" x2="1361" y1="58.7988" y2="1376.5313"/><line style="stroke: #A80036; stroke-width: 1.0; stroke-dasharray: 5.0,5.0;" x1="1498" x2="1498" y1="58.7988" y2="1376.5313"/><line style="stroke: #A80036; stroke-width: 1.0; stroke-dasharray: 5.0,5.0;" x1="1633" x2="1633" y1="58.7988" y2="1376.5313"/><line style="stroke: #A80036; stroke-width: 1.0; stroke-dasharray: 5.0,5.0;" x1="1769" x2="1769" y1="58.7988" y2="1376.5313"/><line style="stroke: #A80036; stroke-width: 1.0; stroke-dasharray: 5.0,5.0;" x1="1924" x2="1924" y1="58.7988" y2="1376.5313"/><line style="stroke: #A80036; stroke-width: 1.0; stroke-dasharray: 5.0,5.0;" x1="2073" x2="2073" y1="58.7988" y2="1376.5313"/><line style="stroke: #A80036; stroke-width: 1.0; stroke-dasharray: 5.0,5.0;" x1="2236" x2="2236" y1="58.7988" y2="1376.5313"/><line style="stroke: #A80036; stroke-width: 1.0; stroke-dasharray: 5.0,5.0;" x1="2389" x2="2389" y1="58.7988" y2="1376.5313"/><line style="stroke: #A80036; stroke-width: 1.0; stroke-dasharray: 5.0,5.0;" x1="2526" x2="2526" y1="58.7988" y2="1376.5313"/><line style="stroke: #A80036; stroke-width: 1.0; stroke-dasharray: 5.0,5.0;" x1="2686" x2="2686" y1="58.7988" y2="1376.5313"/><line style="stroke: #A80036; stroke-width: 1.0; stroke-dasharray: 5.0,5.0;" x1="2827" x2="2827" y1="58.7988" y2="1376.5313"/><rect fill="#FEFECE" filter="url(#fgxeg7r)" height="30.4883" style="stroke: #A80036; stroke-width: 1.5;" width="118" x="8" y="23.3105"/><text fill="#000000" font-family="sans-serif" font-size="14" lengthAdjust="spacingAndGlyphs" textLength="104" x="15" y="43.8457">LoadingActivity</text><rect fill="#FEFECE" filter="url(#fgxeg7r)" height="30.4883" style="stroke: #A80036; stroke-width: 1.5;" width="118" x="8" y="1375.5313"/><text fill="#000000" font-family="sans-serif" font-size="14" lengthAdjust="spacingAndGlyphs" textLength="104" x="15" y="1396.0664">LoadingActivity</text><rect fill="#FEFECE" filter="url(#fgxeg7r)" height="30.4883" style="stroke: #A80036; stroke-width: 1.5;" width="92" x="147" y="23.3105"/><text fill="#000000" font-family="sans-serif" font-size="14" lengthAdjust="spacingAndGlyphs" textLength="78" x="154" y="43.8457">VirtualCore</text><rect fill="#FEFECE" filter="url(#fgxeg7r)" height="30.4883" style="stroke: #A80036; stroke-width: 1.5;" width="92" x="147" y="1375.5313"/><text fill="#000000" font-family="sans-serif" font-size="14" lengthAdjust="spacingAndGlyphs" textLength="78" x="154" y="1396.0664">VirtualCore</text><rect fill="#FEFECE" filter="url(#fgxeg7r)" height="30.4883" style="stroke: #A80036; stroke-width: 1.5;" width="139" x="278.5" y="23.3105"/><text fill="#000000" font-family="sans-serif" font-size="14" lengthAdjust="spacingAndGlyphs" textLength="125" x="285.5" y="43.8457">VPackageManager</text><rect fill="#FEFECE" filter="url(#fgxeg7r)" height="30.4883" style="stroke: #A80036; stroke-width: 1.5;" width="139" x="278.5" y="1375.5313"/><text fill="#000000" font-family="sans-serif" font-size="14" lengthAdjust="spacingAndGlyphs" textLength="125" x="285.5" y="1396.0664">VPackageManager</text><rect fill="#FEFECE" filter="url(#fgxeg7r)" height="30.4883" style="stroke: #A80036; stroke-width: 1.5;" width="132" x="431.5" y="23.3105"/><text fill="#000000" font-family="sans-serif" font-size="14" lengthAdjust="spacingAndGlyphs" textLength="118" x="438.5" y="43.8457">VActivityManager</text><rect fill="#FEFECE" filter="url(#fgxeg7r)" height="30.4883" style="stroke: #A80036; stroke-width: 1.5;" width="132" x="431.5" y="1375.5313"/><text fill="#000000" font-family="sans-serif" font-size="14" lengthAdjust="spacingAndGlyphs" textLength="118" x="438.5" y="1396.0664">VActivityManager</text><rect fill="#FEFECE" filter="url(#fgxeg7r)" height="30.4883" style="stroke: #A80036; stroke-width: 1.5;" width="187" x="577.5" y="23.3105"/><text fill="#000000" font-family="sans-serif" font-size="14" lengthAdjust="spacingAndGlyphs" textLength="173" x="584.5" y="43.8457">VPackageManagerService</text><rect fill="#FEFECE" filter="url(#fgxeg7r)" height="30.4883" style="stroke: #A80036; stroke-width: 1.5;" width="187" x="577.5" y="1375.5313"/><text fill="#000000" font-family="sans-serif" font-size="14" lengthAdjust="spacingAndGlyphs" textLength="173" x="584.5" y="1396.0664">VPackageManagerService</text><rect fill="#FEFECE" filter="url(#fgxeg7r)" height="30.4883" style="stroke: #A80036; stroke-width: 1.5;" width="180" x="778.5" y="23.3105"/><text fill="#000000" font-family="sans-serif" font-size="14" lengthAdjust="spacingAndGlyphs" textLength="166" x="785.5" y="43.8457">VActivityManagerService</text><rect fill="#FEFECE" filter="url(#fgxeg7r)" height="30.4883" style="stroke: #A80036; stroke-width: 1.5;" width="180" x="778.5" y="1375.5313"/><text fill="#000000" font-family="sans-serif" font-size="14" lengthAdjust="spacingAndGlyphs" textLength="166" x="785.5" y="1396.0664">VActivityManagerService</text><rect fill="#FEFECE" filter="url(#fgxeg7r)" height="30.4883" style="stroke: #A80036; stroke-width: 1.5;" width="99" x="1105" y="23.3105"/><text fill="#000000" font-family="sans-serif" font-size="14" lengthAdjust="spacingAndGlyphs" textLength="85" x="1112" y="43.8457">ActivityStack</text><rect fill="#FEFECE" filter="url(#fgxeg7r)" height="30.4883" style="stroke: #A80036; stroke-width: 1.5;" width="99" x="1105" y="1375.5313"/><text fill="#000000" font-family="sans-serif" font-size="14" lengthAdjust="spacingAndGlyphs" textLength="85" x="1112" y="1396.0664">ActivityStack</text><rect fill="#FEFECE" filter="url(#fgxeg7r)" height="30.4883" style="stroke: #A80036; stroke-width: 1.5;" width="97" x="1311" y="23.3105"/><text fill="#000000" font-family="sans-serif" font-size="14" lengthAdjust="spacingAndGlyphs" textLength="83" x="1318" y="43.8457">ProviderCall</text><rect fill="#FEFECE" filter="url(#fgxeg7r)" height="30.4883" style="stroke: #A80036; stroke-width: 1.5;" width="97" x="1311" y="1375.5313"/><text fill="#000000" font-family="sans-serif" font-size="14" lengthAdjust="spacingAndGlyphs" textLength="83" x="1318" y="1396.0664">ProviderCall</text><rect fill="#FEFECE" filter="url(#fgxeg7r)" height="30.4883" style="stroke: #A80036; stroke-width: 1.5;" width="148" x="1422" y="23.3105"/><text fill="#000000" font-family="sans-serif" font-size="14" lengthAdjust="spacingAndGlyphs" textLength="134" x="1429" y="43.8457">VirtualCoreInServer</text><rect fill="#FEFECE" filter="url(#fgxeg7r)" height="30.4883" style="stroke: #A80036; stroke-width: 1.5;" width="148" x="1422" y="1375.5313"/><text fill="#000000" font-family="sans-serif" font-size="14" lengthAdjust="spacingAndGlyphs" textLength="134" x="1429" y="1396.0664">VirtualCoreInServer</text><rect fill="#FEFECE" filter="url(#fgxeg7r)" height="30.4883" style="stroke: #A80036; stroke-width: 1.5;" width="95" x="1584" y="23.3105"/><text fill="#000000" font-family="sans-serif" font-size="14" lengthAdjust="spacingAndGlyphs" textLength="81" x="1591" y="43.8457">StartActivity</text><rect fill="#FEFECE" filter="url(#fgxeg7r)" height="30.4883" style="stroke: #A80036; stroke-width: 1.5;" width="95" x="1584" y="1375.5313"/><text fill="#000000" font-family="sans-serif" font-size="14" lengthAdjust="spacingAndGlyphs" textLength="81" x="1591" y="1396.0664">StartActivity</text><rect fill="#FEFECE" filter="url(#fgxeg7r)" height="30.4883" style="stroke: #A80036; stroke-width: 1.5;" width="125" x="1705" y="23.3105"/><text fill="#000000" font-family="sans-serif" font-size="14" lengthAdjust="spacingAndGlyphs" textLength="111" x="1712" y="43.8457">ComponentUtils</text><rect fill="#FEFECE" filter="url(#fgxeg7r)" height="30.4883" style="stroke: #A80036; stroke-width: 1.5;" width="125" x="1705" y="1375.5313"/><text fill="#000000" font-family="sans-serif" font-size="14" lengthAdjust="spacingAndGlyphs" textLength="111" x="1712" y="1396.0664">ComponentUtils</text><rect fill="#FEFECE" filter="url(#fgxeg7r)" height="30.4883" style="stroke: #A80036; stroke-width: 1.5;" width="157" x="1844" y="23.3105"/><text fill="#000000" font-family="sans-serif" font-size="14" lengthAdjust="spacingAndGlyphs" textLength="143" x="1851" y="43.8457">StubContentProvider</text><rect fill="#FEFECE" filter="url(#fgxeg7r)" height="30.4883" style="stroke: #A80036; stroke-width: 1.5;" width="157" x="1844" y="1375.5313"/><text fill="#000000" font-family="sans-serif" font-size="14" lengthAdjust="spacingAndGlyphs" textLength="143" x="1851" y="1396.0664">StubContentProvider</text><rect fill="#FEFECE" filter="url(#fgxeg7r)" height="30.4883" style="stroke: #A80036; stroke-width: 1.5;" width="113" x="2015" y="23.3105"/><text fill="#000000" font-family="sans-serif" font-size="14" lengthAdjust="spacingAndGlyphs" textLength="99" x="2022" y="43.8457">HCallbackStub</text><rect fill="#FEFECE" filter="url(#fgxeg7r)" height="30.4883" style="stroke: #A80036; stroke-width: 1.5;" width="113" x="2015" y="1375.5313"/><text fill="#000000" font-family="sans-serif" font-size="14" lengthAdjust="spacingAndGlyphs" textLength="99" x="2022" y="1396.0664">HCallbackStub</text><rect fill="#FEFECE" filter="url(#fgxeg7r)" height="30.4883" style="stroke: #A80036; stroke-width: 1.5;" width="185" x="2142" y="23.3105"/><text fill="#000000" font-family="sans-serif" font-size="14" lengthAdjust="spacingAndGlyphs" textLength="171" x="2149" y="43.8457">VActivityManagerInClient</text><rect fill="#FEFECE" filter="url(#fgxeg7r)" height="30.4883" style="stroke: #A80036; stroke-width: 1.5;" width="185" x="2142" y="1375.5313"/><text fill="#000000" font-family="sans-serif" font-size="14" lengthAdjust="spacingAndGlyphs" textLength="171" x="2149" y="1396.0664">VActivityManagerInClient</text><rect fill="#FEFECE" filter="url(#fgxeg7r)" height="30.4883" style="stroke: #A80036; stroke-width: 1.5;" width="93" x="2341" y="23.3105"/><text fill="#000000" font-family="sans-serif" font-size="14" lengthAdjust="spacingAndGlyphs" textLength="79" x="2348" y="43.8457">VClientImpl</text><rect fill="#FEFECE" filter="url(#fgxeg7r)" height="30.4883" style="stroke: #A80036; stroke-width: 1.5;" width="93" x="2341" y="1375.5313"/><text fill="#000000" font-family="sans-serif" font-size="14" lengthAdjust="spacingAndGlyphs" textLength="79" x="2348" y="1396.0664">VClientImpl</text><rect fill="#FEFECE" filter="url(#fgxeg7r)" height="30.4883" style="stroke: #A80036; stroke-width: 1.5;" width="152" x="2448" y="23.3105"/><text fill="#000000" font-family="sans-serif" font-size="14" lengthAdjust="spacingAndGlyphs" textLength="138" x="2455" y="43.8457">AppInstrumentation</text><rect fill="#FEFECE" filter="url(#fgxeg7r)" height="30.4883" style="stroke: #A80036; stroke-width: 1.5;" width="152" x="2448" y="1375.5313"/><text fill="#000000" font-family="sans-serif" font-size="14" lengthAdjust="spacingAndGlyphs" textLength="138" x="2455" y="1396.0664">AppInstrumentation</text><rect fill="#FEFECE" filter="url(#fgxeg7r)" height="30.4883" style="stroke: #A80036; stroke-width: 1.5;" width="141" x="2614" y="23.3105"/><text fill="#000000" font-family="sans-serif" font-size="14" lengthAdjust="spacingAndGlyphs" textLength="127" x="2621" y="43.8457">ApplicationThread</text><rect fill="#FEFECE" filter="url(#fgxeg7r)" height="30.4883" style="stroke: #A80036; stroke-width: 1.5;" width="141" x="2614" y="1375.5313"/><text fill="#000000" font-family="sans-serif" font-size="14" lengthAdjust="spacingAndGlyphs" textLength="127" x="2621" y="1396.0664">ApplicationThread</text><rect fill="#FEFECE" filter="url(#fgxeg7r)" height="30.4883" style="stroke: #A80036; stroke-width: 1.5;" width="112" x="2769" y="23.3105"/><text fill="#000000" font-family="sans-serif" font-size="14" lengthAdjust="spacingAndGlyphs" textLength="98" x="2776" y="43.8457">ActivityThread</text><rect fill="#FEFECE" filter="url(#fgxeg7r)" height="30.4883" style="stroke: #A80036; stroke-width: 1.5;" width="112" x="2769" y="1375.5313"/><text fill="#000000" font-family="sans-serif" font-size="14" lengthAdjust="spacingAndGlyphs" textLength="98" x="2776" y="1396.0664">ActivityThread</text><polygon fill="#A80036" points="57,85.7988,67,89.7988,57,93.7988,61,89.7988" style="stroke: #A80036; stroke-width: 1.0;"/><line style="stroke: #A80036; stroke-width: 1.0;" x1="3" x2="63" y1="89.7988" y2="89.7988"/><text fill="#000000" font-family="sans-serif" font-size="13" lengthAdjust="spacingAndGlyphs" textLength="42" x="10" y="85.3672">launch</text><polygon fill="#A80036" points="183,115.1094,193,119.1094,183,123.1094,187,119.1094" style="stroke: #A80036; stroke-width: 1.0;"/><line style="stroke: #A80036; stroke-width: 1.0;" x1="69" x2="189" y1="119.1094" y2="119.1094"/><text fill="#000000" font-family="sans-serif" font-size="13" lengthAdjust="spacingAndGlyphs" textLength="102" x="76" y="114.6777">getLaunchIntent</text><polygon fill="#A80036" points="338,144.4199,348,148.4199,338,152.4199,342,148.4199" style="stroke: #A80036; stroke-width: 1.0;"/><line style="stroke: #A80036; stroke-width: 1.0;" x1="195" x2="344" y1="148.4199" y2="148.4199"/><text fill="#000000" font-family="sans-serif" font-size="13" lengthAdjust="spacingAndGlyphs" textLength="131" x="202" y="143.9883">queryIntentActivities</text><polygon fill="#A80036" points="661,173.7305,671,177.7305,661,181.7305,665,177.7305" style="stroke: #A80036; stroke-width: 1.0;"/><line style="stroke: #A80036; stroke-width: 1.0;" x1="350" x2="667" y1="177.7305" y2="177.7305"/><text fill="#000000" font-family="sans-serif" font-size="13" lengthAdjust="spacingAndGlyphs" textLength="131" x="357" y="173.2988">queryIntentActivities</text><polygon fill="#A80036" points="361,203.041,351,207.041,361,211.041,357,207.041" style="stroke: #A80036; stroke-width: 1.0;"/><line style="stroke: #A80036; stroke-width: 1.0; stroke-dasharray: 2.0,2.0;" x1="355" x2="672" y1="207.041" y2="207.041"/><text fill="#000000" font-family="sans-serif" font-size="13" lengthAdjust="spacingAndGlyphs" textLength="116" x="367" y="202.6094">List&lt;ResolveInfo&gt;</text><polygon fill="#A80036" points="206,232.3516,196,236.3516,206,240.3516,202,236.3516" style="stroke: #A80036; stroke-width: 1.0;"/><line style="stroke: #A80036; stroke-width: 1.0; stroke-dasharray: 2.0,2.0;" x1="200" x2="349" y1="236.3516" y2="236.3516"/><text fill="#000000" font-family="sans-serif" font-size="13" lengthAdjust="spacingAndGlyphs" textLength="116" x="212" y="231.9199">List&lt;ResolveInfo&gt;</text><polygon fill="#A80036" points="80,261.6621,70,265.6621,80,269.6621,76,265.6621" style="stroke: #A80036; stroke-width: 1.0;"/><line style="stroke: #A80036; stroke-width: 1.0; stroke-dasharray: 2.0,2.0;" x1="74" x2="194" y1="265.6621" y2="265.6621"/><text fill="#000000" font-family="sans-serif" font-size="13" lengthAdjust="spacingAndGlyphs" textLength="37" x="86" y="261.2305">Intent</text><line style="stroke: #A80036; stroke-width: 1.0;" x1="69" x2="111" y1="295.2832" y2="295.2832"/><line style="stroke: #A80036; stroke-width: 1.0;" x1="111" x2="111" y1="295.2832" y2="308.2832"/><line style="stroke: #A80036; stroke-width: 1.0;" x1="70" x2="111" y1="308.2832" y2="308.2832"/><polygon fill="#A80036" points="80,304.2832,70,308.2832,80,312.2832,76,308.2832" style="stroke: #A80036; stroke-width: 1.0;"/><text fill="#000000" font-family="sans-serif" font-size="13" lengthAdjust="spacingAndGlyphs" textLength="56" x="76" y="290.541">onCreate</text><polygon fill="#A80036" points="183,333.2832,193,337.2832,183,341.2832,187,337.2832" style="stroke: #A80036; stroke-width: 1.0;"/><line style="stroke: #A80036; stroke-width: 1.0;" x1="69" x2="189" y1="337.2832" y2="337.2832"/><text fill="#000000" font-family="sans-serif" font-size="13" lengthAdjust="spacingAndGlyphs" textLength="43" x="76" y="332.8516">preOpt</text><polygon fill="#A80036" points="487.5,362.5938,497.5,366.5938,487.5,370.5938,491.5,366.5938" style="stroke: #A80036; stroke-width: 1.0;"/><line style="stroke: #A80036; stroke-width: 1.0;" x1="69" x2="493.5" y1="366.5938" y2="366.5938"/><text fill="#000000" font-family="sans-serif" font-size="13" lengthAdjust="spacingAndGlyphs" textLength="77" x="76" y="362.1621">startActivity</text><polygon fill="#A80036" points="206,391.9043,196,395.9043,206,399.9043,202,395.9043" style="stroke: #A80036; stroke-width: 1.0;"/><line style="stroke: #A80036; stroke-width: 1.0;" x1="200" x2="498.5" y1="395.9043" y2="395.9043"/><text fill="#000000" font-family="sans-serif" font-size="13" lengthAdjust="spacingAndGlyphs" textLength="118" x="212" y="391.4727">resolveActivityInfo</text><polygon fill="#A80036" points="487.5,421.2148,497.5,425.2148,487.5,429.2148,491.5,425.2148" style="stroke: #A80036; stroke-width: 1.0;"/><line style="stroke: #A80036; stroke-width: 1.0; stroke-dasharray: 2.0,2.0;" x1="195" x2="493.5" y1="425.2148" y2="425.2148"/><text fill="#000000" font-family="sans-serif" font-size="13" lengthAdjust="spacingAndGlyphs" textLength="73" x="202" y="420.7832">ActivityInfo</text><line style="stroke: #A80036; stroke-width: 1.0;" x1="499.5" x2="541.5" y1="468.6465" y2="468.6465"/><line style="stroke: #A80036; stroke-width: 1.0;" x1="541.5" x2="541.5" y1="468.6465" y2="481.6465"/><line style="stroke: #A80036; stroke-width: 1.0;" x1="500.5" x2="541.5" y1="481.6465" y2="481.6465"/><polygon fill="#A80036" points="510.5,477.6465,500.5,481.6465,510.5,485.6465,506.5,481.6465" style="stroke: #A80036; stroke-width: 1.0;"/><text fill="#000000" font-family="sans-serif" font-size="13" lengthAdjust="spacingAndGlyphs" textLength="77" x="506.5" y="463.9043">startActivity</text><polygon fill="#FBFB77" filter="url(#fgxeg7r)" points="185,438.5254,185,493.5254,490,493.5254,490,448.5254,480,438.5254,185,438.5254" style="stroke: #A80036; stroke-width: 1.0;"/><line style="stroke: #A80036; stroke-width: 1.0;" x1="480" x2="480" y1="438.5254" y2="448.5254"/><line style="stroke: #A80036; stroke-width: 1.0;" x1="490" x2="480" y1="448.5254" y2="448.5254"/><text fill="#000000" font-family="sans-serif" font-size="13" lengthAdjust="spacingAndGlyphs" textLength="196" x="191" y="456.0938">(Intent intent, ActivityInfo info,</text><text fill="#000000" font-family="sans-serif" font-size="13" lengthAdjust="spacingAndGlyphs" textLength="205" x="191" y="471.4043">IBinder resultTo, Bundle options,</text><text fill="#000000" font-family="sans-serif" font-size="13" lengthAdjust="spacingAndGlyphs" textLength="284" x="191" y="486.7148">String resultWho, int requestCode, int userId)</text><polygon fill="#A80036" points="858.5,520.457,868.5,524.457,858.5,528.457,862.5,524.457" style="stroke: #A80036; stroke-width: 1.0;"/><line style="stroke: #A80036; stroke-width: 1.0;" x1="499.5" x2="864.5" y1="524.457" y2="524.457"/><text fill="#000000" font-family="sans-serif" font-size="13" lengthAdjust="spacingAndGlyphs" textLength="77" x="506.5" y="520.0254">startActivity</text><polygon fill="#A80036" points="1144.5,549.7676,1154.5,553.7676,1144.5,557.7676,1148.5,553.7676" style="stroke: #A80036; stroke-width: 1.0;"/><line style="stroke: #A80036; stroke-width: 1.0;" x1="870.5" x2="1150.5" y1="553.7676" y2="553.7676"/><text fill="#000000" font-family="sans-serif" font-size="13" lengthAdjust="spacingAndGlyphs" textLength="122" x="877.5" y="549.3359">startActivityLocked</text><line style="stroke: #A80036; stroke-width: 1.0;" x1="1156.5" x2="1198.5" y1="583.3887" y2="583.3887"/><line style="stroke: #A80036; stroke-width: 1.0;" x1="1198.5" x2="1198.5" y1="583.3887" y2="596.3887"/><line style="stroke: #A80036; stroke-width: 1.0;" x1="1157.5" x2="1198.5" y1="596.3887" y2="596.3887"/><polygon fill="#A80036" points="1167.5,592.3887,1157.5,596.3887,1167.5,600.3887,1163.5,596.3887" style="stroke: #A80036; stroke-width: 1.0;"/><text fill="#000000" font-family="sans-serif" font-size="13" lengthAdjust="spacingAndGlyphs" textLength="191" x="1163.5" y="578.6465">startActivityInNewTaskLocked</text><line style="stroke: #A80036; stroke-width: 1.0;" x1="1156.5" x2="1198.5" y1="625.6992" y2="625.6992"/><line style="stroke: #A80036; stroke-width: 1.0;" x1="1198.5" x2="1198.5" y1="625.6992" y2="638.6992"/><line style="stroke: #A80036; stroke-width: 1.0;" x1="1157.5" x2="1198.5" y1="638.6992" y2="638.6992"/><polygon fill="#A80036" points="1167.5,634.6992,1157.5,638.6992,1167.5,642.6992,1163.5,638.6992" style="stroke: #A80036; stroke-width: 1.0;"/><text fill="#000000" font-family="sans-serif" font-size="13" lengthAdjust="spacingAndGlyphs" textLength="125" x="1163.5" y="620.957">startActivityProcess</text><polygon fill="#A80036" points="881.5,663.6992,871.5,667.6992,881.5,671.6992,877.5,667.6992" style="stroke: #A80036; stroke-width: 1.0;"/><line style="stroke: #A80036; stroke-width: 1.0;" x1="875.5" x2="1155.5" y1="667.6992" y2="667.6992"/><text fill="#000000" font-family="sans-serif" font-size="13" lengthAdjust="spacingAndGlyphs" textLength="163" x="887.5" y="663.2676">startProcessIfNeedLocked</text><line style="stroke: #A80036; stroke-width: 1.0;" x1="870.5" x2="912.5" y1="697.3203" y2="697.3203"/><line style="stroke: #A80036; stroke-width: 1.0;" x1="912.5" x2="912.5" y1="697.3203" y2="710.3203"/><line style="stroke: #A80036; stroke-width: 1.0;" x1="871.5" x2="912.5" y1="710.3203" y2="710.3203"/><polygon fill="#A80036" points="881.5,706.3203,871.5,710.3203,881.5,714.3203,877.5,710.3203" style="stroke: #A80036; stroke-width: 1.0;"/><text fill="#000000" font-family="sans-serif" font-size="13" lengthAdjust="spacingAndGlyphs" textLength="182" x="877.5" y="692.5781">queryFreeStubProcessLocked</text><line style="stroke: #A80036; stroke-width: 1.0;" x1="870.5" x2="912.5" y1="739.6309" y2="739.6309"/><line style="stroke: #A80036; stroke-width: 1.0;" x1="912.5" x2="912.5" y1="739.6309" y2="752.6309"/><line style="stroke: #A80036; stroke-width: 1.0;" x1="871.5" x2="912.5" y1="752.6309" y2="752.6309"/><polygon fill="#A80036" points="881.5,748.6309,871.5,752.6309,881.5,756.6309,877.5,752.6309" style="stroke: #A80036; stroke-width: 1.0;"/><text fill="#000000" font-family="sans-serif" font-size="13" lengthAdjust="spacingAndGlyphs" textLength="172" x="877.5" y="734.8887">performStartProcessLocked</text><polygon fill="#A80036" points="1349.5,777.6309,1359.5,781.6309,1349.5,785.6309,1353.5,781.6309" style="stroke: #A80036; stroke-width: 1.0;"/><line style="stroke: #A80036; stroke-width: 1.0;" x1="870.5" x2="1355.5" y1="781.6309" y2="781.6309"/><text fill="#000000" font-family="sans-serif" font-size="13" lengthAdjust="spacingAndGlyphs" textLength="22" x="877.5" y="777.1992">call</text><polygon fill="#A80036" points="1912.5,806.9414,1922.5,810.9414,1912.5,814.9414,1916.5,810.9414" style="stroke: #A80036; stroke-width: 1.0;"/><line style="stroke: #A80036; stroke-width: 1.0;" x1="1361.5" x2="1918.5" y1="810.9414" y2="810.9414"/><text fill="#000000" font-family="sans-serif" font-size="13" lengthAdjust="spacingAndGlyphs" textLength="69" x="1368.5" y="806.5098">initProcess</text><polygon fill="#A80036" points="2377.5,836.252,2387.5,840.252,2377.5,844.252,2381.5,840.252" style="stroke: #A80036; stroke-width: 1.0;"/><line style="stroke: #A80036; stroke-width: 1.0;" x1="1924.5" x2="2383.5" y1="840.252" y2="840.252"/><text fill="#000000" font-family="sans-serif" font-size="13" lengthAdjust="spacingAndGlyphs" textLength="69" x="1931.5" y="835.8203">initProcess</text><polygon fill="#A80036" points="1372.5,865.5625,1362.5,869.5625,1372.5,873.5625,1368.5,869.5625" style="stroke: #A80036; stroke-width: 1.0;"/><line style="stroke: #A80036; stroke-width: 1.0; stroke-dasharray: 2.0,2.0;" x1="1366.5" x2="1923.5" y1="869.5625" y2="869.5625"/><text fill="#000000" font-family="sans-serif" font-size="13" lengthAdjust="spacingAndGlyphs" textLength="42" x="1378.5" y="865.1309">Bundle</text><polygon fill="#A80036" points="881.5,894.873,871.5,898.873,881.5,902.873,877.5,898.873" style="stroke: #A80036; stroke-width: 1.0;"/><line style="stroke: #A80036; stroke-width: 1.0; stroke-dasharray: 2.0,2.0;" x1="875.5" x2="1360.5" y1="898.873" y2="898.873"/><text fill="#000000" font-family="sans-serif" font-size="13" lengthAdjust="spacingAndGlyphs" textLength="42" x="887.5" y="894.4414">Bundle</text><line style="stroke: #A80036; stroke-width: 1.0;" x1="870.5" x2="912.5" y1="928.4941" y2="928.4941"/><line style="stroke: #A80036; stroke-width: 1.0;" x1="912.5" x2="912.5" y1="928.4941" y2="941.4941"/><line style="stroke: #A80036; stroke-width: 1.0;" x1="871.5" x2="912.5" y1="941.4941" y2="941.4941"/><polygon fill="#A80036" points="881.5,937.4941,871.5,941.4941,881.5,945.4941,877.5,941.4941" style="stroke: #A80036; stroke-width: 1.0;"/><text fill="#000000" font-family="sans-serif" font-size="13" lengthAdjust="spacingAndGlyphs" textLength="76" x="877.5" y="923.752">attachClient</text><line style="stroke: #A80036; stroke-width: 1.0; stroke-dasharray: 2.0,2.0;" x1="870.5" x2="912.5" y1="970.8047" y2="970.8047"/><line style="stroke: #A80036; stroke-width: 1.0; stroke-dasharray: 2.0,2.0;" x1="912.5" x2="912.5" y1="970.8047" y2="983.8047"/><line style="stroke: #A80036; stroke-width: 1.0; stroke-dasharray: 2.0,2.0;" x1="871.5" x2="912.5" y1="983.8047" y2="983.8047"/><polygon fill="#A80036" points="881.5,979.8047,871.5,983.8047,881.5,987.8047,877.5,983.8047" style="stroke: #A80036; stroke-width: 1.0;"/><text fill="#000000" font-family="sans-serif" font-size="13" lengthAdjust="spacingAndGlyphs" textLength="271" x="877.5" y="966.0625">ProcessRecord: performStartProcessLocked</text><polygon fill="#A80036" points="1144.5,1008.8047,1154.5,1012.8047,1144.5,1016.8047,1148.5,1012.8047" style="stroke: #A80036; stroke-width: 1.0;"/><line style="stroke: #A80036; stroke-width: 1.0; stroke-dasharray: 2.0,2.0;" x1="870.5" x2="1150.5" y1="1012.8047" y2="1012.8047"/><text fill="#000000" font-family="sans-serif" font-size="13" lengthAdjust="spacingAndGlyphs" textLength="262" x="877.5" y="1008.373">ProcessRecord: startProcessIfNeedLocked</text><line style="stroke: #A80036; stroke-width: 1.0; stroke-dasharray: 2.0,2.0;" x1="1156.5" x2="1198.5" y1="1042.4258" y2="1042.4258"/><line style="stroke: #A80036; stroke-width: 1.0; stroke-dasharray: 2.0,2.0;" x1="1198.5" x2="1198.5" y1="1042.4258" y2="1055.4258"/><line style="stroke: #A80036; stroke-width: 1.0; stroke-dasharray: 2.0,2.0;" x1="1157.5" x2="1198.5" y1="1055.4258" y2="1055.4258"/><polygon fill="#A80036" points="1167.5,1051.4258,1157.5,1055.4258,1167.5,1059.4258,1163.5,1055.4258" style="stroke: #A80036; stroke-width: 1.0;"/><text fill="#000000" font-family="sans-serif" font-size="13" lengthAdjust="spacingAndGlyphs" textLength="170" x="1163.5" y="1037.6836">Intent: startActivityProcess</text><polygon fill="#FBFB77" filter="url(#fgxeg7r)" points="1037,1027.6152,1037,1052.6152,1147,1052.6152,1147,1037.6152,1137,1027.6152,1037,1027.6152" style="stroke: #A80036; stroke-width: 1.0;"/><line style="stroke: #A80036; stroke-width: 1.0;" x1="1137" x2="1137" y1="1027.6152" y2="1037.6152"/><line style="stroke: #A80036; stroke-width: 1.0;" x1="1147" x2="1137" y1="1037.6152" y2="1037.6152"/><text fill="#000000" font-family="sans-serif" font-size="13" lengthAdjust="spacingAndGlyphs" textLength="89" x="1043" y="1045.1836">替换后的Intent</text><polygon fill="#A80036" points="1486,1080.4258,1496,1084.4258,1486,1088.4258,1490,1084.4258" style="stroke: #A80036; stroke-width: 1.0;"/><line style="stroke: #A80036; stroke-width: 1.0;" x1="1156.5" x2="1492" y1="1084.4258" y2="1084.4258"/><text fill="#000000" font-family="sans-serif" font-size="13" lengthAdjust="spacingAndGlyphs" textLength="77" x="1163.5" y="1079.9941">startActivity</text><polygon fill="#A80036" points="1621.5,1109.7363,1631.5,1113.7363,1621.5,1117.7363,1625.5,1113.7363" style="stroke: #A80036; stroke-width: 1.0;"/><line style="stroke: #A80036; stroke-width: 1.0;" x1="3" x2="1627.5" y1="1113.7363" y2="1113.7363"/><text fill="#000000" font-family="sans-serif" font-size="13" lengthAdjust="spacingAndGlyphs" textLength="77" x="10" y="1109.3047">call(hooked)</text><polygon fill="#A80036" points="1757.5,1139.0469,1767.5,1143.0469,1757.5,1147.0469,1761.5,1143.0469" style="stroke: #A80036; stroke-width: 1.0;"/><line style="stroke: #A80036; stroke-width: 1.0;" x1="1633.5" x2="1763.5" y1="1143.0469" y2="1143.0469"/><text fill="#000000" font-family="sans-serif" font-size="13" lengthAdjust="spacingAndGlyphs" textLength="112" x="1640.5" y="1138.6152">isStubComponent</text><polygon fill="#A80036" points="1644.5,1168.3574,1634.5,1172.3574,1644.5,1176.3574,1640.5,1172.3574" style="stroke: #A80036; stroke-width: 1.0;"/><line style="stroke: #A80036; stroke-width: 1.0; stroke-dasharray: 2.0,2.0;" x1="1638.5" x2="1768.5" y1="1172.3574" y2="1172.3574"/><text fill="#000000" font-family="sans-serif" font-size="13" lengthAdjust="spacingAndGlyphs" textLength="50" x="1650.5" y="1167.9258">boolean</text><polygon fill="#A80036" points="2674.5,1197.668,2684.5,1201.668,2674.5,1205.668,2678.5,1201.668" style="stroke: #A80036; stroke-width: 1.0;"/><line style="stroke: #A80036; stroke-width: 1.0;" x1="3" x2="2680.5" y1="1201.668" y2="1201.668"/><text fill="#000000" font-family="sans-serif" font-size="13" lengthAdjust="spacingAndGlyphs" textLength="149" x="10" y="1197.2363">scheduleLaunchActivity</text><polygon fill="#A80036" points="2084.5,1231.9785,2074.5,1235.9785,2084.5,1239.9785,2080.5,1235.9785" style="stroke: #A80036; stroke-width: 1.0;"/><line style="stroke: #A80036; stroke-width: 1.0;" x1="2078.5" x2="2826" y1="1235.9785" y2="1235.9785"/><text fill="#000000" font-family="sans-serif" font-size="13" lengthAdjust="spacingAndGlyphs" textLength="135" x="2090.5" y="1231.5469">handleLaunchActivity</text><polygon fill="#FBFB77" filter="url(#fgxeg7r)" points="2832,1214.9785,2832,1239.9785,3122,1239.9785,3122,1224.9785,3112,1214.9785,2832,1214.9785" style="stroke: #A80036; stroke-width: 1.0;"/><line style="stroke: #A80036; stroke-width: 1.0;" x1="3112" x2="3112" y1="1214.9785" y2="1224.9785"/><line style="stroke: #A80036; stroke-width: 1.0;" x1="3122" x2="3112" y1="1224.9785" y2="1224.9785"/><text fill="#000000" font-family="sans-serif" font-size="13" lengthAdjust="spacingAndGlyphs" textLength="269" x="2838" y="1232.5469">修改ActivityClientRecord，恢复原始的Intent</text><polygon fill="#A80036" points="2224.5,1266.2891,2234.5,1270.2891,2224.5,1274.2891,2228.5,1270.2891" style="stroke: #A80036; stroke-width: 1.0;"/><line style="stroke: #A80036; stroke-width: 1.0;" x1="2073.5" x2="2230.5" y1="1270.2891" y2="1270.2891"/><text fill="#000000" font-family="sans-serif" font-size="13" lengthAdjust="spacingAndGlyphs" textLength="104" x="2080.5" y="1265.8574">onActivityCreate</text><polygon fill="#A80036" points="881.5,1295.5996,871.5,1299.5996,881.5,1303.5996,877.5,1299.5996" style="stroke: #A80036; stroke-width: 1.0;"/><line style="stroke: #A80036; stroke-width: 1.0;" x1="875.5" x2="2235.5" y1="1299.5996" y2="1299.5996"/><text fill="#000000" font-family="sans-serif" font-size="13" lengthAdjust="spacingAndGlyphs" textLength="112" x="887.5" y="1295.168">onActivityCreated</text><polygon fill="#A80036" points="1144.5,1324.9102,1154.5,1328.9102,1144.5,1332.9102,1148.5,1328.9102" style="stroke: #A80036; stroke-width: 1.0;"/><line style="stroke: #A80036; stroke-width: 1.0;" x1="870.5" x2="1150.5" y1="1328.9102" y2="1328.9102"/><text fill="#000000" font-family="sans-serif" font-size="13" lengthAdjust="spacingAndGlyphs" textLength="112" x="877.5" y="1324.4785">onActivityCreated</text><polygon fill="#A80036" points="2537,1354.2207,2527,1358.2207,2537,1362.2207,2533,1358.2207" style="stroke: #A80036; stroke-width: 1.0;"/><line style="stroke: #A80036; stroke-width: 1.0;" x1="2531" x2="2826" y1="1358.2207" y2="1358.2207"/><text fill="#000000" font-family="sans-serif" font-size="13" lengthAdjust="spacingAndGlyphs" textLength="128" x="2543" y="1353.7891">callActivityOnCreate</text></g></svg>